<?xml version="1.0" encoding="UTF-8"?>
<!DOCTYPE svg PUBLIC "-//W3C//DTD SVG 1.1//EN" "http://www.w3.org/Graphics/SVG/1.1/DTD/svg11.dtd">
<!-- Creator: CorelDRAW X8 -->
<svg xmlns="http://www.w3.org/2000/svg" xml:space="preserve" width="219.5mm" height="80mm" version="1.1" style="shape-rendering:geometricPrecision; text-rendering:geometricPrecision; image-rendering:optimizeQuality; fill-rule:evenodd; clip-rule:evenodd"
viewBox="0 0 21950 8000"
 xmlns:xlink="http://www.w3.org/1999/xlink">
 <defs>
  <style type="text/css">
   <![CDATA[
    .fil3 {fill:#ED3237}
    .fil2 {fill:#587885}
    .fil1 {fill:#ED3237;fill-rule:nonzero}
    .fil0 {fill:#587885;fill-rule:nonzero}
   ]]>
  </style>
 </defs>
 <g id="Layer_x0020_1">
  <metadata id="CorelCorpID_0Corel-Layer"/>
  <g id="_801356272192">
   <g>
    <path class="fil0" d="M9986 5634c-95,125 -206,218 -336,280 -129,62 -276,93 -442,93 -312,0 -565,-111 -760,-334 -193,-224 -290,-516 -290,-879 0,-377 100,-675 301,-893 200,-218 473,-327 817,-327 263,0 477,67 644,200 166,133 266,319 299,558l-305 0c-28,-156 -98,-276 -209,-361 -112,-85 -255,-127 -429,-127 -252,0 -448,82 -586,245 -139,164 -208,394 -208,692 0,295 69,526 206,691 137,167 325,250 566,250 217,0 390,-67 520,-199 130,-132 194,-311 194,-535l0 -30 -722 0 0 -260 1011 0 0 1245 -204 0 -67 -309zm908 -683l921 0c-1,-156 -41,-278 -119,-363 -79,-85 -190,-128 -334,-128 -139,0 -248,42 -328,126 -80,83 -127,205 -140,365zm914 450l280 0c-31,185 -111,330 -242,437 -130,106 -295,160 -493,160 -234,0 -418,-78 -553,-235 -134,-157 -202,-371 -202,-641 0,-286 67,-510 201,-671 134,-161 318,-241 553,-241 241,0 428,74 560,222 132,149 198,358 198,628 0,35 0,60 0,77 -1,17 -3,33 -4,49l-1211 0c3,176 47,313 132,410 84,97 202,145 352,145 115,0 210,-29 284,-89 75,-59 123,-143 145,-251zm956 120c0,75 11,125 33,150 21,26 60,38 118,38 16,0 36,-1 60,-2 23,-1 54,-3 91,-6l0 240c-47,8 -89,14 -126,18 -37,5 -70,7 -100,7 -132,0 -225,-26 -278,-77 -53,-51 -80,-142 -80,-273l0 -1127 -251 0 0 -225 251 0 0 -468 282 0 0 468 302 0 0 225 -302 0 0 1032z"/>
    <path class="fil1" d="M15367 5150c-17,262 -118,471 -303,626 -184,154 -425,231 -721,231 -342,0 -607,-106 -797,-320 -190,-212 -284,-512 -284,-896 0,-393 96,-694 289,-903 194,-210 471,-314 834,-314 294,0 527,72 698,216 171,144 265,346 281,609l-469 0c-19,-130 -73,-230 -159,-298 -87,-69 -204,-103 -351,-103 -209,0 -368,67 -476,202 -109,135 -163,332 -163,591 0,250 54,444 162,581 108,137 262,205 462,205 143,0 262,-37 353,-110 92,-73 152,-179 179,-317l465 0zm1319 581c-58,89 -134,157 -227,203 -93,47 -201,70 -324,70 -166,0 -293,-47 -382,-140 -90,-95 -135,-228 -135,-402 0,-161 45,-283 135,-368 89,-84 237,-142 443,-174 47,-7 109,-15 185,-25 193,-25 290,-81 290,-168 0,-69 -21,-119 -64,-148 -43,-30 -115,-45 -215,-45 -92,0 -163,18 -212,55 -49,36 -74,89 -74,157l0 26 -427 0 0 -32c0,-175 62,-312 185,-413 123,-100 294,-149 511,-149 239,0 421,41 549,124 127,82 190,202 190,358l0 968c0,71 8,124 22,159 15,35 40,62 74,79l0 77 -475 0c-15,-29 -27,-61 -35,-97 -9,-35 -13,-74 -14,-115zm-8 -626c-75,35 -160,62 -257,83 -97,21 -146,32 -149,33 -81,23 -137,51 -170,86 -31,34 -47,82 -47,142 0,63 20,113 61,150 41,37 96,55 165,55 123,0 220,-34 291,-104 70,-69 106,-164 106,-284l0 -161zm738 283l456 0c4,87 35,151 94,193 58,42 146,64 263,64 88,0 157,-15 206,-45 48,-30 72,-72 72,-126 0,-77 -91,-135 -272,-174 -74,-15 -133,-29 -177,-41 -222,-56 -375,-123 -461,-200 -86,-78 -130,-182 -130,-314 0,-174 63,-313 189,-414 126,-103 297,-153 512,-153 228,0 406,50 536,152 130,102 199,245 208,429l-443 0c-3,-73 -31,-129 -83,-168 -51,-40 -123,-60 -215,-60 -87,0 -152,13 -194,39 -42,26 -63,66 -63,118 0,67 113,128 340,180 52,12 93,21 124,28 226,54 381,118 464,193 83,75 124,181 124,318 0,193 -68,340 -204,442 -136,101 -335,152 -595,152 -235,0 -419,-53 -552,-158 -133,-106 -199,-251 -199,-436l0 -19zm1858 555l0 -2308 453 0 0 792c61,-77 135,-135 220,-174 85,-39 180,-59 286,-59 100,0 191,17 272,52 81,34 146,83 196,147 35,43 59,92 73,147 15,55 22,144 22,266l0 31 0 1106 -453 0 0 -892c0,-212 -19,-344 -58,-398 -39,-54 -108,-80 -208,-80 -108,0 -194,32 -256,96 -63,64 -94,152 -94,263l0 1011 -453 0z"/>
   </g>
   <path class="fil2" d="M4565 3238l2209 0c-58,525 -353,1709 -1946,1747 254,-132 614,-473 796,-747 -50,-1 -878,0 -1059,0 0,-75 0,-966 0,-1000z"/>
   <path class="fil2" d="M5752 2612l962 9c38,1 -346,-2115 -2523,-2270 -2177,-154 -3169,1822 -3023,3056 147,1233 922,1951 1400,2203 479,253 1212,332 1385,341 -75,-32 -1471,-487 -1817,-1969 -346,-1483 505,-2903 2158,-2668 1145,294 1439,1317 1458,1298z"/>
   <path class="fil3" d="M6967 2612l851 0c-273,-1186 -1278,-2244 -2804,-2214 578,265 1612,773 1953,2214z"/>
   <path class="fil3" d="M7039 3238l839 0c-58,1204 -738,2582 -2631,2757 -1892,175 -3178,-1520 -3018,-2953 95,-845 671,-1659 1925,-1623 -479,258 -1120,939 -1037,1969 83,1029 993,1671 1691,1729 1304,106 2146,-839 2231,-1879z"/>
   <path class="fil1" d="M14170 7420l281 0c66,0 115,-12 145,-36 30,-24 45,-62 45,-114 0,-54 -15,-92 -44,-116 -30,-24 -79,-36 -148,-36l-279 0 0 302zm0 -499l270 0c59,0 101,-10 129,-30 27,-20 40,-52 40,-95 0,-42 -13,-73 -39,-92 -26,-19 -70,-28 -131,-28l-269 0 0 245zm-228 707l0 -1153 544 0c118,0 208,25 270,75 61,50 92,122 92,217 0,58 -11,107 -34,146 -23,39 -57,70 -103,91 59,24 104,59 133,104 30,45 44,101 44,169 0,112 -36,199 -109,260 -73,61 -177,91 -311,91l-526 0zm1869 -851l0 851 -223 0 0 -101c-33,41 -70,72 -113,93 -43,20 -92,31 -145,31 -94,0 -164,-25 -211,-74 -47,-49 -70,-122 -70,-220l0 -580 228 0 0 515c0,60 10,103 30,129 21,26 55,39 101,39 54,0 96,-16 128,-48 31,-32 47,-76 47,-131l0 -504 228 0zm151 574l228 0c2,43 17,75 47,96 29,21 73,32 131,32 44,0 79,-7 103,-22 24,-15 36,-36 36,-63 0,-39 -45,-68 -136,-87 -37,-8 -66,-14 -88,-20 -111,-28 -188,-62 -231,-101 -43,-38 -64,-90 -64,-156 0,-87 31,-157 94,-207 63,-51 148,-77 256,-77 113,0 203,26 268,76 65,51 99,123 103,215l-221 0c-2,-37 -15,-65 -41,-84 -26,-20 -62,-30 -108,-30 -43,0 -75,6 -97,19 -21,13 -31,33 -31,59 0,34 56,64 170,90 26,6 46,11 62,14 113,27 190,59 231,96 42,38 63,91 63,159 0,97 -34,171 -102,221 -69,51 -168,76 -298,76 -117,0 -209,-26 -276,-79 -66,-53 -99,-125 -99,-218l0 -9zm928 -669l0 -207 228 0 0 207 -228 0zm0 946l0 -851 228 0 0 851 -228 0zm432 0l0 -851 223 0 0 101c32,-41 69,-72 113,-93 43,-21 91,-31 144,-31 95,0 165,25 212,73 46,49 70,123 70,221l0 580 -228 0 0 -515c0,-61 -10,-104 -31,-130 -21,-26 -54,-40 -101,-40 -54,0 -96,17 -127,49 -32,32 -47,76 -47,131l0 505 -228 0zm1482 -258l228 0c-23,90 -69,160 -139,211 -70,51 -155,76 -255,76 -124,0 -221,-41 -293,-124 -73,-83 -109,-195 -109,-336 0,-140 36,-250 107,-330 71,-81 168,-121 291,-121 131,0 232,40 303,119 71,79 106,192 106,338 0,16 0,28 0,37 0,8 -1,15 -2,23l-569 0c3,66 20,117 49,151 29,34 72,51 127,51 40,0 72,-8 97,-23 25,-16 44,-40 59,-72zm-332 -257l335 0c-2,-57 -17,-101 -45,-131 -29,-30 -70,-45 -123,-45 -50,0 -89,15 -117,46 -28,30 -45,74 -50,130zm674 238l227 0c2,43 18,75 47,96 29,21 73,32 132,32 44,0 78,-7 102,-22 25,-15 37,-36 37,-63 0,-39 -46,-68 -136,-87 -37,-8 -67,-14 -89,-20 -110,-28 -187,-62 -230,-101 -43,-38 -65,-90 -65,-156 0,-87 32,-157 95,-207 62,-51 148,-77 255,-77 114,0 203,26 268,76 65,51 100,123 104,215l-221 0c-2,-37 -16,-65 -42,-84 -26,-20 -61,-30 -107,-30 -44,0 -76,6 -97,19 -21,13 -32,33 -32,59 0,34 57,64 170,90 26,6 47,11 62,14 113,27 190,59 232,96 41,38 62,91 62,159 0,97 -34,171 -102,221 -68,51 -167,76 -297,76 -118,0 -210,-26 -276,-79 -66,-53 -99,-125 -99,-218l0 -9zm875 0l228 0c2,43 17,75 47,96 29,21 73,32 131,32 44,0 79,-7 103,-22 24,-15 36,-36 36,-63 0,-39 -45,-68 -136,-87 -37,-8 -66,-14 -88,-20 -111,-28 -188,-62 -231,-101 -43,-38 -64,-90 -64,-156 0,-87 31,-157 94,-207 63,-51 148,-77 256,-77 113,0 203,26 268,76 65,51 99,123 103,215l-221 0c-2,-37 -15,-65 -41,-84 -26,-20 -62,-30 -108,-30 -43,0 -75,6 -97,19 -21,13 -31,33 -31,59 0,34 56,64 170,90 26,6 46,11 62,14 113,27 190,59 231,96 42,38 63,91 63,159 0,97 -34,171 -102,221 -69,51 -168,76 -298,76 -117,0 -209,-26 -276,-79 -66,-53 -99,-125 -99,-218l0 -9z"/>
  </g>
 </g>
</svg>
