<?xml version="1.0" encoding="UTF-8"?>
<!DOCTYPE svg PUBLIC "-//W3C//DTD SVG 1.1//EN" "http://www.w3.org/Graphics/SVG/1.1/DTD/svg11.dtd">
<!-- Creator: CorelDRAW X8 -->
<svg xmlns="http://www.w3.org/2000/svg" xml:space="preserve" width="219.5mm" height="80mm" version="1.1" style="shape-rendering:geometricPrecision; text-rendering:geometricPrecision; image-rendering:optimizeQuality; fill-rule:evenodd; clip-rule:evenodd"
viewBox="0 0 21950 8000"
 xmlns:xlink="http://www.w3.org/1999/xlink">
 <defs>
  <style type="text/css">
   <![CDATA[
    .fil3 {fill:#ED3237}
    .fil2 {fill:#587885}
    .fil1 {fill:#ED3237;fill-rule:nonzero}
    .fil0 {fill:#587885;fill-rule:nonzero}
   ]]>
  </style>
 </defs>
 <g id="Layer_x0020_1">
  <metadata id="CorelCorpID_0Corel-Layer"/>
  <g id="_801228980176">
   <g>
    <path class="fil0" d="M9986 5633c-95,125 -206,218 -336,281 -129,62 -276,93 -442,93 -312,0 -565,-112 -760,-335 -193,-223 -290,-516 -290,-879 0,-377 100,-675 301,-893 200,-217 473,-327 817,-327 263,0 477,67 644,200 166,134 266,319 299,558l-305 0c-28,-156 -98,-276 -209,-361 -112,-85 -255,-127 -429,-127 -252,0 -448,82 -586,246 -139,163 -208,393 -208,691 0,295 69,526 206,692 137,166 325,249 566,249 217,0 390,-66 520,-199 130,-132 194,-311 194,-535l0 -30 -722 0 0 -260 1011 0 0 1245 -204 0 -67 -309zm908 -683l921 0c-1,-156 -41,-278 -119,-363 -79,-85 -190,-128 -334,-128 -139,0 -248,42 -328,126 -80,84 -127,206 -140,365zm914 450l280 0c-31,185 -111,331 -242,437 -130,106 -295,160 -493,160 -234,0 -418,-78 -553,-235 -134,-157 -202,-371 -202,-641 0,-286 67,-510 201,-671 134,-161 318,-241 553,-241 241,0 428,74 560,223 132,148 198,357 198,628 0,34 0,60 0,76 -1,17 -3,33 -4,49l-1211 0c3,176 47,313 132,410 84,97 202,145 352,145 115,0 210,-29 284,-89 75,-58 123,-142 145,-251zm956 120c0,75 11,125 33,151 21,25 60,37 118,37 16,0 36,0 60,-2 23,-1 54,-3 91,-6l0 240c-47,8 -89,14 -126,18 -37,5 -70,7 -100,7 -132,0 -225,-26 -278,-77 -53,-51 -80,-142 -80,-272l0 -1128 -251 0 0 -224 251 0 0 -469 282 0 0 469 302 0 0 224 -302 0 0 1032z"/>
    <path class="fil1" d="M15367 5150c-17,262 -118,470 -303,625 -184,155 -425,232 -721,232 -342,0 -607,-107 -797,-320 -190,-213 -284,-512 -284,-897 0,-393 96,-694 289,-903 194,-209 471,-314 834,-314 294,0 527,72 698,216 171,144 265,347 281,609l-469 0c-19,-130 -73,-230 -159,-298 -87,-69 -204,-103 -351,-103 -209,0 -368,68 -476,202 -109,135 -163,332 -163,591 0,250 54,445 162,581 108,137 262,205 462,205 143,0 262,-36 353,-110 92,-73 152,-179 179,-316l465 0zm1319 581c-58,88 -134,156 -227,202 -93,47 -201,70 -324,70 -166,0 -293,-47 -382,-140 -90,-94 -135,-228 -135,-402 0,-161 45,-283 135,-368 89,-84 237,-142 443,-174 47,-7 109,-15 185,-25 193,-25 290,-81 290,-168 0,-69 -21,-118 -64,-148 -43,-30 -115,-45 -215,-45 -92,0 -163,18 -212,55 -49,37 -74,89 -74,158l0 25 -427 0 0 -32c0,-175 62,-312 185,-412 123,-100 294,-150 511,-150 239,0 421,41 549,124 127,82 190,202 190,358l0 968c0,71 8,124 22,159 15,36 40,62 74,79l0 77 -475 0c-15,-29 -27,-61 -35,-97 -9,-35 -13,-74 -14,-114zm-8 -627c-75,35 -160,62 -257,83 -97,21 -146,32 -149,33 -81,23 -137,52 -170,86 -31,35 -47,82 -47,143 0,62 20,112 61,149 41,37 96,56 165,56 123,0 220,-35 291,-105 70,-69 106,-164 106,-284l0 -161zm738 283l456 0c4,87 35,151 94,193 58,42 146,64 263,64 88,0 157,-15 206,-45 48,-29 72,-72 72,-126 0,-77 -91,-135 -272,-174 -74,-15 -133,-29 -177,-40 -222,-57 -375,-123 -461,-201 -86,-78 -130,-182 -130,-313 0,-175 63,-313 189,-415 126,-102 297,-153 512,-153 228,0 406,51 536,152 130,102 199,245 208,429l-443 0c-3,-72 -31,-129 -83,-168 -51,-40 -123,-60 -215,-60 -87,0 -152,13 -194,39 -42,26 -63,66 -63,118 0,68 113,128 340,181 52,11 93,20 124,27 226,54 381,118 464,193 83,75 124,181 124,318 0,193 -68,341 -204,442 -136,101 -335,152 -595,152 -235,0 -419,-53 -552,-158 -133,-106 -199,-251 -199,-436l0 -19zm1858 555l0 -2308 453 0 0 792c61,-77 135,-135 220,-174 85,-39 180,-59 286,-59 100,0 191,17 272,52 81,34 146,83 196,147 35,43 59,92 73,147 15,55 22,144 22,267l0 31 0 1105 -453 0 0 -892c0,-211 -19,-343 -58,-398 -39,-54 -108,-80 -208,-80 -108,0 -194,32 -256,96 -63,64 -94,152 -94,263l0 1011 -453 0z"/>
   </g>
   <path class="fil2" d="M4565 3237l2209 0c-58,525 -353,1709 -1946,1747 254,-132 614,-473 796,-747 -50,-1 -878,0 -1059,0 0,-75 0,-966 0,-1000z"/>
   <path class="fil2" d="M5752 2611l962 10c38,0 -346,-2116 -2523,-2270 -2177,-155 -3169,1822 -3023,3055 147,1234 922,1951 1400,2204 479,252 1212,331 1385,341 -75,-33 -1471,-488 -1817,-1970 -346,-1483 505,-2903 2158,-2668 1145,294 1439,1317 1458,1298z"/>
   <path class="fil3" d="M6967 2611l851 0c-273,-1186 -1278,-2244 -2804,-2214 578,265 1612,773 1953,2214z"/>
   <path class="fil3" d="M7039 3237l839 0c-58,1204 -738,2582 -2631,2757 -1892,175 -3178,-1520 -3018,-2953 95,-845 671,-1659 1925,-1623 -479,259 -1120,939 -1037,1969 83,1030 993,1671 1691,1729 1304,107 2146,-838 2231,-1879z"/>
   <path class="fil1" d="M14811 7008l229 0c62,0 107,-13 136,-39 28,-27 42,-69 42,-127 0,-55 -14,-97 -41,-125 -28,-28 -69,-42 -124,-42l-242 0 0 333zm-2 209l0 411 -237 0 0 -1154 513 0c121,0 213,32 275,95 63,63 94,155 94,276 0,119 -31,211 -92,275 -61,65 -148,97 -262,97l-291 0zm821 411l0 -1154 228 0 0 1154 -228 0zm921 -106c-28,44 -66,78 -113,101 -46,23 -100,35 -162,35 -82,0 -146,-23 -191,-70 -44,-47 -67,-114 -67,-201 0,-80 23,-141 67,-184 45,-42 119,-71 222,-87 23,-3 54,-7 92,-12 97,-13 145,-41 145,-84 0,-35 -10,-59 -32,-74 -21,-15 -57,-23 -107,-23 -46,0 -82,10 -106,28 -25,18 -37,44 -37,79l0 12 -213 0 0 -16c0,-87 30,-156 92,-206 62,-50 147,-75 255,-75 120,0 211,21 274,62 64,42 96,101 96,179l0 484c0,35 3,62 11,79 7,18 19,31 37,40l0 39 -238 0c-7,-15 -13,-31 -18,-49 -4,-18 -6,-37 -7,-57zm-4 -313c-37,17 -79,31 -128,41 -48,11 -73,16 -74,17 -41,11 -69,25 -85,43 -16,17 -24,41 -24,71 0,31 10,56 31,74 20,19 48,28 82,28 62,0 110,-17 146,-52 35,-34 52,-82 52,-142l0 -80zm796 425c-21,1 -46,1 -75,3 -29,1 -47,2 -55,2 -88,0 -147,-17 -180,-49 -32,-33 -48,-97 -48,-193l0 -461 -112 0 0 -160 112 0 0 -233 226 0 0 233 132 0 0 160 -132 0 0 472c0,22 6,37 15,44 10,7 31,10 61,10l56 0 0 172zm171 -6l0 -692 -122 0 0 -160 122 0 0 -79c0,-79 21,-137 62,-175 41,-37 105,-56 194,-56 16,0 33,1 51,1 18,1 37,3 57,5l0 180 -59 0c-34,0 -57,5 -67,14 -11,9 -16,25 -16,51l0 59 142 0 0 160 -141 0 0 692 -223 0zm668 -427c0,84 17,150 52,196 35,46 84,69 148,69 63,0 112,-23 147,-69 35,-46 52,-112 52,-196 0,-84 -17,-149 -51,-195 -35,-45 -84,-68 -148,-68 -64,0 -113,23 -148,68 -35,46 -52,111 -52,195zm-231 -1c0,-141 38,-252 115,-333 77,-81 182,-122 316,-122 134,0 239,41 316,122 77,81 116,192 116,333 0,143 -39,254 -116,335 -77,81 -182,121 -316,121 -134,0 -239,-40 -316,-121 -77,-81 -115,-192 -115,-335zm1018 428l0 -852 212 0 0 146c29,-59 64,-102 104,-129 40,-28 87,-41 142,-41 9,0 16,0 21,0 5,0 9,1 12,1l1 231 -77 0c-62,0 -109,17 -140,49 -31,32 -47,81 -47,144l0 451 -228 0zm616 0l0 -852 216 0 0 94c32,-39 67,-69 106,-89 39,-19 83,-29 131,-29 53,0 99,10 137,30 38,20 72,52 100,95 30,-42 65,-73 106,-94 40,-21 86,-31 136,-31 85,0 153,25 204,75 50,50 75,118 75,205l0 596 -225 0 0 -549c0,-41 -11,-73 -33,-96 -22,-23 -53,-34 -93,-34 -44,0 -80,15 -106,44 -26,29 -39,68 -39,118l0 517 -223 0 0 -547c0,-42 -11,-74 -33,-97 -21,-23 -51,-35 -91,-35 -44,0 -79,15 -105,44 -26,29 -39,69 -39,120l0 515 -224 0z"/>
  </g>
 </g>
</svg>
