<?xml version="1.0" encoding="UTF-8"?>
<!DOCTYPE svg PUBLIC "-//W3C//DTD SVG 1.1//EN" "http://www.w3.org/Graphics/SVG/1.1/DTD/svg11.dtd">
<!-- Creator: CorelDRAW X8 -->
<svg xmlns="http://www.w3.org/2000/svg" xml:space="preserve" width="219.5mm" height="80mm" version="1.1" style="shape-rendering:geometricPrecision; text-rendering:geometricPrecision; image-rendering:optimizeQuality; fill-rule:evenodd; clip-rule:evenodd"
viewBox="0 0 21950 8000"
 xmlns:xlink="http://www.w3.org/1999/xlink">
 <defs>
  <style type="text/css">
   <![CDATA[
    .fil3 {fill:#ED3237}
    .fil2 {fill:#587885}
    .fil1 {fill:#ED3237;fill-rule:nonzero}
    .fil0 {fill:#587885;fill-rule:nonzero}
   ]]>
  </style>
 </defs>
 <g id="Layer_x0020_1">
  <metadata id="CorelCorpID_0Corel-Layer"/>
  <g id="_801370476352">
   <g>
    <path class="fil0" d="M9986 5633c-95,125 -206,218 -336,281 -129,62 -276,93 -442,93 -312,0 -565,-112 -759,-335 -194,-223 -291,-516 -291,-879 0,-377 100,-675 301,-893 200,-217 473,-327 817,-327 263,0 477,67 644,200 166,134 266,319 299,558l-305 0c-28,-156 -98,-276 -209,-361 -112,-85 -255,-127 -429,-127 -252,0 -448,82 -586,246 -139,163 -208,393 -208,691 0,295 69,526 206,692 137,166 325,249 566,249 217,0 390,-66 520,-199 130,-132 195,-311 195,-535l0 -30 -723 0 0 -260 1011 0 0 1245 -204 0 -67 -309zm908 -683l921 0c-1,-156 -41,-278 -119,-363 -79,-85 -190,-128 -334,-128 -139,0 -248,42 -328,126 -80,84 -127,206 -140,365zm914 450l280 0c-31,185 -111,331 -242,437 -130,106 -295,160 -493,160 -234,0 -418,-78 -553,-235 -134,-157 -202,-371 -202,-641 0,-286 67,-510 201,-671 134,-161 318,-241 553,-241 241,0 428,74 560,223 132,148 198,357 198,628 0,34 0,60 0,76 -1,17 -2,33 -4,49l-1211 0c3,176 47,313 132,410 84,97 202,145 352,145 115,0 210,-29 284,-89 75,-58 124,-142 145,-251zm957 120c0,75 10,125 32,151 21,25 60,37 118,37 16,0 36,0 60,-2 23,-1 54,-3 91,-6l0 240c-47,8 -89,14 -126,18 -37,5 -70,7 -99,7 -133,0 -226,-26 -279,-77 -53,-51 -80,-142 -80,-272l0 -1128 -251 0 0 -224 251 0 0 -469 283 0 0 469 301 0 0 224 -301 0 0 1032z"/>
    <path class="fil1" d="M15367 5150c-17,262 -118,470 -303,625 -184,155 -425,232 -721,232 -342,0 -607,-107 -797,-320 -190,-213 -284,-512 -284,-897 0,-393 96,-694 290,-903 193,-209 470,-314 833,-314 294,0 527,72 698,216 171,144 265,347 281,609l-468 0c-20,-130 -74,-230 -160,-298 -87,-69 -204,-103 -351,-103 -209,0 -367,68 -476,202 -109,135 -163,332 -163,591 0,250 54,445 162,581 108,137 262,205 462,205 144,0 262,-36 353,-110 92,-73 152,-179 179,-316l465 0zm1319 581c-58,88 -134,156 -227,202 -93,47 -201,70 -324,70 -166,0 -293,-47 -382,-140 -90,-94 -135,-228 -135,-402 0,-161 45,-283 135,-368 89,-84 237,-142 443,-174 47,-7 109,-15 185,-25 193,-25 290,-81 290,-168 0,-69 -21,-118 -64,-148 -43,-30 -114,-45 -215,-45 -92,0 -163,18 -212,55 -49,37 -74,89 -74,158l0 25 -427 0 0 -32c0,-175 62,-312 185,-412 123,-100 294,-150 511,-150 239,0 421,41 549,124 127,82 190,202 190,358l0 968c0,71 8,124 22,159 15,36 40,62 75,79l0 77 -476 0c-15,-29 -27,-61 -35,-97 -9,-35 -13,-74 -14,-114zm-8 -627c-75,35 -160,62 -257,83 -96,21 -146,32 -149,33 -81,23 -137,52 -169,86 -32,35 -48,82 -48,143 0,62 20,112 61,149 41,37 96,56 165,56 123,0 220,-35 291,-105 70,-69 106,-164 106,-284l0 -161zm738 283l456 0c4,87 35,151 94,193 58,42 146,64 263,64 89,0 157,-15 206,-45 48,-29 72,-72 72,-126 0,-77 -91,-135 -272,-174 -74,-15 -133,-29 -177,-40 -221,-57 -375,-123 -461,-201 -86,-78 -130,-182 -130,-313 0,-175 63,-313 189,-415 126,-102 297,-153 512,-153 228,0 406,51 536,152 130,102 199,245 208,429l-443 0c-3,-72 -31,-129 -82,-168 -52,-40 -124,-60 -216,-60 -87,0 -151,13 -194,39 -42,26 -63,66 -63,118 0,68 113,128 340,181 52,11 93,20 124,27 226,54 381,118 464,193 83,75 124,181 124,318 0,193 -67,341 -204,442 -136,101 -335,152 -595,152 -235,0 -419,-53 -552,-158 -133,-106 -199,-251 -199,-436l0 -19zm1858 555l0 -2308 453 0 0 792c61,-77 135,-135 220,-174 85,-39 180,-59 286,-59 100,0 191,17 272,52 81,34 146,83 197,147 34,43 58,92 72,147 15,55 22,144 22,267l0 31 0 1105 -453 0 0 -892c0,-211 -19,-343 -58,-398 -39,-54 -108,-80 -208,-80 -108,0 -193,32 -256,96 -63,64 -94,152 -94,263l0 1011 -453 0z"/>
   </g>
   <path class="fil2" d="M4565 3237l2209 0c-58,525 -353,1709 -1946,1747 254,-132 614,-473 796,-747 -50,-1 -878,0 -1059,0 0,-75 0,-966 0,-1000z"/>
   <path class="fil2" d="M5752 2611l962 10c38,0 -346,-2116 -2523,-2270 -2177,-155 -3169,1822 -3022,3055 146,1234 921,1951 1399,2204 479,252 1212,331 1385,341 -75,-33 -1471,-488 -1817,-1970 -346,-1483 505,-2903 2158,-2668 1145,294 1439,1317 1458,1298z"/>
   <path class="fil3" d="M6967 2611l851 0c-273,-1186 -1278,-2244 -2804,-2214 578,265 1612,773 1953,2214z"/>
   <path class="fil3" d="M7039 3237l839 0c-58,1204 -738,2582 -2631,2757 -1892,175 -3178,-1520 -3018,-2953 95,-845 671,-1659 1925,-1623 -479,259 -1120,939 -1037,1969 83,1030 993,1671 1691,1729 1304,107 2146,-838 2231,-1879z"/>
   <path class="fil1" d="M14537 7008l230 0c62,0 107,-13 135,-39 28,-27 43,-69 43,-127 0,-55 -14,-97 -42,-125 -28,-28 -69,-42 -124,-42l-242 0 0 333zm-1 209l0 411 -238 0 0 -1154 514 0c121,0 212,32 275,95 62,63 93,155 93,276 0,119 -30,211 -91,275 -61,65 -149,97 -262,97l-291 0zm1309 152l228 0c-23,90 -69,160 -139,211 -70,51 -155,76 -255,76 -124,0 -221,-41 -293,-124 -72,-82 -109,-195 -109,-336 0,-140 36,-250 107,-330 71,-80 168,-121 291,-121 131,0 232,40 303,119 71,79 106,192 106,338 0,17 0,29 0,37 0,8 -1,16 -2,23l-569 0c3,67 20,117 49,151 30,34 72,51 127,51 40,0 72,-8 97,-23 25,-16 45,-39 59,-72zm-332 -256l335 0c-2,-58 -17,-102 -45,-132 -29,-30 -70,-45 -123,-45 -49,0 -88,16 -117,46 -28,30 -45,74 -50,131zm722 515l0 -852 211 0 0 146c30,-59 65,-102 104,-129 40,-28 88,-41 143,-41 8,0 15,0 20,0 5,0 9,1 13,1l0 231 -76 0c-62,0 -109,17 -140,49 -32,32 -48,81 -48,144l0 451 -227 0zm567 -278l228 0c2,43 18,75 47,97 29,21 73,31 131,31 45,0 79,-7 103,-22 25,-15 37,-36 37,-63 0,-38 -46,-68 -136,-87 -38,-8 -67,-14 -89,-20 -111,-28 -187,-62 -230,-100 -43,-39 -65,-91 -65,-157 0,-87 31,-156 94,-207 63,-51 148,-77 256,-77 114,0 203,26 268,77 65,50 99,122 104,214l-222 0c-1,-36 -15,-64 -41,-84 -26,-20 -62,-30 -108,-30 -43,0 -75,6 -96,19 -21,13 -32,33 -32,59 0,34 57,64 170,91 26,5 47,10 62,13 113,27 190,59 232,97 41,37 62,90 62,158 0,97 -34,171 -102,222 -68,50 -168,75 -297,75 -118,0 -210,-26 -276,-79 -67,-52 -100,-125 -100,-218l0 -9zm1111 -149c0,84 18,150 53,196 34,46 84,69 148,69 63,0 112,-23 147,-69 34,-46 52,-112 52,-196 0,-84 -17,-149 -52,-195 -34,-45 -83,-68 -147,-68 -64,0 -114,23 -148,68 -35,46 -53,111 -53,195zm-230 -1c0,-141 38,-252 115,-333 76,-81 182,-122 316,-122 134,0 239,41 316,122 77,81 115,192 115,333 0,143 -38,254 -115,335 -77,81 -182,121 -316,121 -134,0 -240,-40 -316,-121 -77,-81 -115,-192 -115,-335zm1018 428l0 -852 223 0 0 101c32,-41 69,-72 112,-93 44,-20 92,-31 145,-31 94,0 165,25 212,74 46,48 70,122 70,220l0 581 -228 0 0 -515c0,-62 -11,-105 -31,-131 -21,-26 -54,-39 -101,-39 -54,0 -96,16 -127,48 -32,32 -48,76 -48,131l0 506 -227 0zm1446 -106c-29,44 -67,78 -113,101 -47,23 -101,35 -162,35 -83,0 -147,-23 -191,-70 -45,-47 -67,-114 -67,-201 0,-80 22,-141 67,-184 44,-42 118,-71 221,-87 24,-3 55,-7 93,-12 96,-13 145,-41 145,-84 0,-35 -11,-59 -32,-74 -22,-15 -58,-23 -108,-23 -46,0 -81,10 -106,28 -24,18 -37,44 -37,79l0 12 -213 0 0 -16c0,-87 31,-156 93,-206 61,-50 146,-75 255,-75 119,0 210,21 274,62 63,42 95,101 95,179l0 484c0,35 4,62 11,79 7,18 20,31 37,40l0 39 -237 0c-8,-15 -14,-31 -18,-49 -4,-18 -7,-37 -7,-57zm-4 -313c-37,17 -80,31 -128,41 -49,11 -73,16 -75,17 -40,11 -68,25 -84,43 -16,17 -24,41 -24,71 0,31 10,56 30,74 21,19 48,28 83,28 61,0 110,-17 145,-52 35,-34 53,-82 53,-142l0 -80zm425 419l0 -1154 228 0 0 1154 -228 0z"/>
  </g>
 </g>
</svg>
