<?xml version="1.0" encoding="UTF-8"?>
<!DOCTYPE svg PUBLIC "-//W3C//DTD SVG 1.1//EN" "http://www.w3.org/Graphics/SVG/1.1/DTD/svg11.dtd">
<!-- Creator: CorelDRAW X7 -->
<svg xmlns="http://www.w3.org/2000/svg" xml:space="preserve" width="88.9mm" height="25.4mm" version="1.1" style="shape-rendering:geometricPrecision; text-rendering:geometricPrecision; image-rendering:optimizeQuality; fill-rule:evenodd; clip-rule:evenodd"
viewBox="0 0 8890 2540"
 xmlns:xlink="http://www.w3.org/1999/xlink">
 <defs>
  <style type="text/css">
   <![CDATA[
    .str1 {stroke:#527883;stroke-width:20}
    .str0 {stroke:#EC0002;stroke-width:20}
    .fil1 {fill:#527883}
    .fil3 {fill:#587885}
    .fil2 {fill:#64787F}
    .fil4 {fill:#EC0000}
    .fil0 {fill:#EC0002}
   ]]>
  </style>
 </defs>
 <g id="Layer_x0020_1">
  <metadata id="CorelCorpID_0Corel-Layer"/>
  <g id="_1591169684304">
   <path class="fil0 str0" d="M1881 325c304,112 508,370 583,715l269 0c-101,-423 -433,-719 -852,-715z"/>
   <path class="fil0 str0" d="M2480 1292c-21,339 -241,592 -571,617 -539,42 -937,-843 -295,-1239 -311,-19 -547,225 -599,530 -43,254 82,818 650,973 524,143 1068,-289 1090,-881l-275 0z"/>
   <path class="fil1 str1" d="M1744 1300l674 -8c-4,71 -24,186 -55,247 -107,213 -283,330 -545,313 114,-62 202,-156 269,-272l-343 0 0 -280z"/>
   <path class="fil2 str1" d="M962 1187c55,-371 317,-619 667,-575 195,24 418,232 489,428l280 0c-43,-211 -153,-396 -305,-526 -193,-166 -326,-187 -558,-187 -476,0 -853,443 -853,944 0,501 387,878 830,917 -507,-281 -595,-699 -550,-1001z"/>
  </g>
  <g id="_1591169683376">
   <path class="fil3" d="M3785 2048c-38,51 -84,89 -137,114 -52,26 -112,38 -180,38 -127,0 -230,-45 -309,-136 -79,-91 -119,-210 -119,-358 0,-154 41,-275 123,-364 82,-88 193,-133 333,-133 107,0 194,27 262,82 68,54 109,129 122,227l-124 0c-12,-64 -40,-113 -85,-147 -46,-35 -104,-52 -175,-52 -103,0 -182,33 -239,100 -56,66 -84,160 -84,282 0,120 27,214 83,281 56,68 133,102 231,102 88,0 159,-27 212,-81 53,-54 79,-127 79,-218l0 -12 -294 0 0 -106 412 0 0 507 -84 0 -27 -126zm370 -278l375 0c0,-64 -16,-113 -48,-148 -32,-35 -78,-52 -136,-52 -57,0 -101,17 -134,51 -32,34 -52,84 -57,149zm373 183l113 0c-12,76 -45,135 -98,178 -53,44 -120,65 -201,65 -95,0 -170,-31 -225,-95 -55,-64 -82,-151 -82,-261 0,-117 27,-208 81,-274 55,-65 130,-98 226,-98 98,0 174,30 228,91 54,60 81,145 81,256 0,14 0,24 -1,31 0,6 -1,13 -1,20l-493 0c1,71 19,127 53,167 35,39 83,59 144,59 46,0 85,-12 116,-36 30,-24 50,-59 59,-103zm389 49c0,31 4,51 13,61 9,11 25,16 48,16 7,0 15,0 25,-1 9,0 22,-1 37,-3l0 98c-19,4 -36,6 -51,8 -15,1 -29,2 -41,2 -54,0 -92,-10 -114,-31 -21,-21 -32,-58 -32,-111l0 -459 -102 0 0 -92 102 0 0 -191 115 0 0 191 123 0 0 92 -123 0 0 420z"/>
   <path class="fil4" d="M5974 1851c-7,107 -48,192 -123,255 -75,63 -173,94 -294,94 -140,0 -248,-43 -325,-130 -77,-87 -116,-209 -116,-365 0,-161 40,-283 118,-368 79,-85 192,-128 340,-128 120,0 215,29 284,88 70,59 108,141 115,248l-191 0c-8,-53 -30,-94 -65,-121 -35,-28 -83,-42 -143,-42 -85,0 -150,27 -194,82 -44,55 -66,135 -66,241 0,102 22,181 66,236 44,56 106,84 188,84 58,0 106,-15 144,-45 37,-30 61,-73 73,-129l189 0zm537 237c-23,36 -54,64 -92,82 -38,19 -82,29 -132,29 -68,0 -120,-19 -156,-57 -36,-39 -55,-93 -55,-164 0,-65 19,-115 55,-150 36,-34 97,-58 181,-71 19,-3 44,-6 75,-10 79,-10 118,-33 118,-68 0,-28 -8,-49 -26,-61 -17,-12 -46,-18 -87,-18 -38,0 -67,7 -87,23 -20,14 -30,36 -30,64l0 10 -174 0 0 -13c0,-71 25,-127 76,-168 50,-41 119,-61 208,-61 97,0 171,17 223,50 52,34 78,83 78,146l0 395c0,29 3,50 9,65 6,14 16,25 30,32l0 31 -194 0c-6,-12 -11,-25 -14,-39 -4,-15 -5,-31 -6,-47zm-3 -255c-30,14 -65,25 -104,33 -40,9 -60,14 -61,14 -33,9 -56,21 -69,35 -13,14 -20,33 -20,58 0,26 9,46 25,61 17,15 39,22 67,22 51,0 90,-14 119,-42 29,-28 43,-67 43,-116l0 -65zm301 115l185 0c2,35 15,61 39,79 24,17 59,26 107,26 36,0 64,-7 84,-19 20,-12 29,-29 29,-51 0,-31 -37,-55 -111,-71 -30,-6 -54,-12 -72,-16 -90,-23 -153,-50 -188,-82 -35,-32 -52,-74 -52,-128 0,-71 25,-127 77,-169 51,-41 120,-62 208,-62 93,0 166,21 219,62 53,41 81,100 84,175l-180 0c-2,-30 -13,-53 -34,-69 -21,-16 -50,-24 -88,-24 -35,0 -61,5 -79,16 -17,10 -26,26 -26,48 0,27 47,52 139,73 21,5 38,9 51,12 92,21 155,48 189,78 33,31 50,74 50,130 0,78 -27,138 -83,180 -55,41 -136,62 -242,62 -96,0 -171,-22 -225,-65 -54,-43 -81,-102 -81,-177l0 -8zm757 226l0 -940 184 0 0 322c25,-31 55,-55 90,-71 35,-15 73,-24 116,-24 41,0 78,7 111,22 33,14 60,34 80,60 14,17 24,37 30,59 6,23 9,59 9,109l0 13 0 450 -185 0 0 -363c0,-86 -8,-140 -23,-162 -16,-22 -45,-33 -85,-33 -44,0 -79,13 -105,39 -25,26 -38,62 -38,107l0 412 -184 0z"/>
  </g>
 </g>
</svg>
